<svg width="104" height="21" viewBox="0 0 104 21" fill="none" xmlns="http://www.w3.org/2000/svg">
<path d="M22.9947 1.14099H29.4289L24.4675 20.1512H16.8662L15.3399 13.1551H14.9807L13.48 20.1512H5.88213L0.932373 1.14099H7.36659L9.84263 11.7609H10.0228L12.8278 1.14099H17.5195L20.2687 11.7609H20.4489L22.9947 1.14099Z" fill="white"/>
<path d="M47.3772 20.1512V1.14099H53.5301V20.1512H47.3772Z" fill="white"/>
<path d="M69.4814 6.00732H65.8359V20.1512H59.683V6.00732H55.2227V1.14099H70.2963L69.4814 6.00732Z" fill="white"/>
<path d="M84.2936 12.9781H78.1407V15.2791H86.6313L85.6769 20.1512H71.9878V1.14099H85.5235L84.7551 6.01766H78.1407V8.56691H84.2936V12.9781Z" fill="white"/>
<path d="M94.364 6.01773V7.50383L96.5691 7.70611C97.9188 7.84174 99.0464 8.06471 99.9531 8.37733C100.859 8.68995 101.59 9.09912 102.144 9.60713C102.699 10.114 103.093 10.7139 103.324 11.407C103.554 12.1001 103.669 12.8943 103.669 13.7896C103.669 15.0734 103.499 16.1549 103.157 17.0342C102.815 17.9134 102.404 18.5801 101.927 19.0364C101.533 19.4076 101.046 19.6995 100.466 19.9099C99.8845 20.1213 99.2695 20.2777 98.6209 20.3788C97.9711 20.4799 97.3178 20.5431 96.6598 20.5684C96.0007 20.5937 95.4067 20.6064 94.8778 20.6064C93.5444 20.6064 92.2634 20.5386 91.0324 20.4029C89.8025 20.2673 88.6133 20.0731 87.4683 19.8202L88.3215 15.278H97.0562V13.7884L94.2872 13.5609C93.0399 13.4425 91.996 13.2402 91.1602 12.9529C90.3221 12.6655 89.6514 12.2736 89.148 11.7748C88.6435 11.276 88.2855 10.6772 88.0716 9.97492C87.8577 9.27382 87.7519 8.44974 87.7519 7.50383C87.7519 6.20277 87.8891 5.11664 88.1622 4.24658C88.4354 3.37653 88.8713 2.67543 89.47 2.14328C90.0675 1.61114 90.8417 1.2353 91.7903 1.01578C92.7388 0.79625 93.8967 0.685913 95.2637 0.685913C97.9815 0.685913 100.442 0.938769 102.646 1.44563L101.62 6.01773H94.364Z" fill="white"/>
<path d="M41.0953 1.14099H31.5841L26.6111 20.1512H33.0976L33.7904 17.1353H38.8657L39.5841 20.1512H46.0695L41.0953 1.14099ZM34.918 12.2931L36.1746 6.97047H36.5083L37.7381 12.2931H34.918Z" fill="white"/>
</svg>
