<?xml version="1.0" encoding="utf-8"?>
<!-- Generator: Adobe Illustrator 23.0.6, SVG Export Plug-In . SVG Version: 6.00 Build 0)  -->
<svg version="1.1" id="Layer_1" xmlns="http://www.w3.org/2000/svg" xmlns:xlink="http://www.w3.org/1999/xlink" x="0px" y="0px"
	 viewBox="0 0 1264.56 287.12" style="enable-background:new 0 0 1264.56 287.12;" xml:space="preserve">
<style type="text/css">
	.st0{fill:#FFCD05;}
	.st1{fill:#000000;}
	.st2{fill:#010101;}
</style>
<g>
	<rect x="31.53" y="24.83" class="st0" width="269.78" height="237.46"/>
	<g>
		<path class="st1" d="M539.03,60.86h55.35l-42.68,165.4h-65.39l-13.13-60.87h-3.09l-12.91,60.87h-65.36l-42.58-165.4h55.35
			l21.3,92.4h1.55l24.13-92.4h40.36l23.65,92.4h1.55L539.03,60.86z"/>
		<path class="st1" d="M748.78,226.26V60.86h52.93v165.4H748.78z"/>
		<path class="st1" d="M938.93,103.2h-31.36v123.06h-52.93V103.2h-38.37V60.86h129.67L938.93,103.2z"/>
		<path class="st1" d="M1066.35,163.85h-52.93v20.02h73.04l-8.21,42.39H960.49V60.86h116.44l-6.61,42.43h-56.9v22.18h52.93V163.85z"
			/>
		<path class="st1" d="M1152.98,103.29v12.93l18.97,1.76c11.61,1.18,21.31,3.12,29.11,5.84c7.79,2.72,14.08,6.28,18.85,10.7
			c4.77,4.41,8.16,9.63,10.15,15.66c1.98,6.03,2.97,12.94,2.97,20.73c0,11.17-1.47,20.58-4.41,28.23
			c-2.94,7.65-6.48,13.45-10.58,17.42c-3.39,3.23-7.58,5.77-12.57,7.6c-5,1.84-10.29,3.2-15.87,4.08
			c-5.59,0.88-11.21,1.43-16.87,1.65c-5.67,0.22-10.78,0.33-15.33,0.33c-11.47,0-22.49-0.59-33.08-1.77
			c-10.58-1.18-20.81-2.87-30.66-5.07l7.34-39.52h75.14v-12.96l-23.82-1.98c-10.73-1.03-19.71-2.79-26.9-5.29
			c-7.21-2.5-12.98-5.91-17.31-10.25c-4.34-4.34-7.42-9.55-9.26-15.66c-1.84-6.1-2.75-13.27-2.75-21.5
			c0-11.32,1.18-20.77,3.53-28.34c2.35-7.57,6.1-13.67,11.25-18.3c5.14-4.63,11.8-7.9,19.96-9.81c8.16-1.91,18.12-2.87,29.88-2.87
			c23.38,0,44.55,2.2,63.51,6.61l-8.83,39.78H1152.98z"/>
		<path class="st1" d="M694.74,60.86h-81.82l-42.78,165.4h55.8l5.96-26.24h43.66l6.18,26.24h55.79L694.74,60.86z M641.6,157.89
			l10.81-46.31h2.87l10.58,46.31H641.6z"/>
	</g>
	<g>
		<path class="st2" d="M101.43,79.55c12.22,32.22,24.42,64.45,36.64,96.68c10.92-0.01,21.84,0.01,32.76-0.01
			c6.61-10.07,13.14-20.18,19.76-30.24c3.86,10.07,7.66,20.17,11.48,30.25c10.98,0.01,21.97-0.01,32.95,0.01
			c-6.81,10.45-13.63,20.9-20.46,31.35c-11.42-0.01-22.84,0.01-34.26-0.01c-3.78-9.4-7.64-18.76-11.39-28.17
			c-6.08,9.42-12.25,18.77-18.35,28.17c-11.42,0.02-22.84,0.01-34.27,0.01c-12.5-30.8-24.96-61.61-37.46-92.42
			C86.36,103.27,93.89,91.41,101.43,79.55L101.43,79.55z"/>
		<path class="st2" d="M229.45,79.55c8.29,21.86,16.57,43.74,24.85,65.6c-11.75,0.01-23.51,0-35.27,0
			c-4.06-10-8.12-20.01-12.16-30.02C214.4,103.27,221.91,91.4,229.45,79.55L229.45,79.55z"/>
		<path class="st2" d="M142.86,115.12c7.54-11.85,15.05-23.72,22.58-35.57c8.34,21.99,16.67,43.98,25,65.97
			c-11.76,0-23.52,0.01-35.27-0.01C151.07,135.38,146.95,125.26,142.86,115.12L142.86,115.12z"/>
	</g>
</g>
</svg>
